<svg width="90" height="83" viewBox="0 0 90 83" fill="none" xmlns="http://www.w3.org/2000/svg">
<circle cx="67.5" cy="31.5" r="22.5" fill="#53C1FF"/>
<path d="M13.3976 62.8768C13.4716 63.2141 13.6081 63.5318 13.7987 63.8107C13.9893 64.0895 14.2302 64.3239 14.5068 64.4995C14.7834 64.6752 15.09 64.7886 15.4083 64.8329C15.7265 64.8772 16.0497 64.8514 16.3585 64.7572C30.5162 60.5335 45.4684 60.532 59.6268 64.7528C59.9355 64.8469 60.2586 64.8726 60.5767 64.8283C60.8948 64.784 61.2014 64.6707 61.4779 64.4951C61.7544 64.3195 61.9952 64.0854 62.1858 63.8066C62.3765 63.5279 62.5129 63.2104 62.5871 62.8733L70.154 28.1282C70.2553 27.6631 70.2344 27.1766 70.0937 26.7236C69.9529 26.2706 69.6979 25.8691 69.3573 25.5643C69.0168 25.2594 68.6042 25.0634 68.1661 24.9982C67.728 24.933 67.2817 25.0013 66.8776 25.1954L51.8606 32.4069C51.3183 32.6673 50.7055 32.6989 50.1427 32.4956C49.5799 32.2922 49.108 31.8686 48.8199 31.3081L40.0762 14.3026C39.8705 13.9026 39.5695 13.5692 39.2045 13.3371C38.8394 13.105 38.4236 12.9827 38 12.9827C37.5765 12.9827 37.1607 13.105 36.7956 13.3371C36.4306 13.5692 36.1296 13.9026 35.9239 14.3026L27.1803 31.3081C26.8921 31.8686 26.4202 32.2922 25.8574 32.4956C25.2946 32.6989 24.6818 32.6673 24.1396 32.4069L9.12022 25.1943C8.71617 25.0003 8.27001 24.932 7.83198 24.9971C7.39394 25.0622 6.98143 25.2581 6.64087 25.5628C6.30032 25.8675 6.04525 26.2689 5.90439 26.7218C5.76352 27.1746 5.74246 27.661 5.84356 28.1261L13.3976 62.8768Z" stroke="black" stroke-width="2" stroke-linecap="round" stroke-linejoin="round"/>
<path d="M28.5 51.8625C34.8159 51.144 41.1841 51.144 47.5 51.8625" stroke="black" stroke-width="2" stroke-linecap="round" stroke-linejoin="round"/>
</svg>
