<svg width="81" height="83" viewBox="0 0 81 83" fill="none" xmlns="http://www.w3.org/2000/svg">
<circle cx="22.5" cy="32.5" r="22.5" fill="#7553FF"/>
<path d="M44.3095 61.9446L59.2826 72.1945C61.1965 73.5047 63.5728 71.5561 63.0048 69.1421L58.6788 50.7546C58.557 50.2425 58.5714 49.7036 58.7204 49.2C58.8694 48.6963 59.147 48.2483 59.5212 47.9075L72.9481 35.8325C74.7123 34.2459 73.8017 31.0823 71.535 30.9233L54.0004 29.6937C53.5281 29.6573 53.0752 29.4766 52.6942 29.1727C52.3133 28.8689 52.0201 28.4543 51.8487 27.9774L45.3091 10.1832C45.1313 9.67697 44.8152 9.24115 44.4028 8.93361C43.9904 8.62607 43.5011 8.46136 43 8.46136C42.4989 8.46136 42.0097 8.62607 41.5972 8.93361C41.1848 9.24115 40.8687 9.67697 40.691 10.1832L34.1513 27.9774C33.98 28.4543 33.6867 28.8689 33.3058 29.1727C32.9249 29.4766 32.4719 29.6573 31.9996 29.6937L14.465 30.9233C12.1983 31.0823 11.2877 34.2459 13.052 35.8325L26.4788 47.9075C26.853 48.2483 27.1306 48.6963 27.2796 49.2C27.4286 49.7036 27.443 50.2425 27.3212 50.7546L23.3093 67.807C22.6278 70.7037 25.4793 73.0421 27.776 71.4698L41.6905 61.9446C42.0818 61.6754 42.5361 61.5324 43 61.5324C43.4639 61.5324 43.9182 61.6754 44.3095 61.9446V61.9446Z" stroke="black" stroke-width="2" stroke-linecap="round" stroke-linejoin="round"/>
</svg>
