<svg width="32" height="35" viewBox="0 0 32 35" fill="none" xmlns="http://www.w3.org/2000/svg">
<path d="M5.99994 26.6558C5.99994 26.6558 10.9999 25.5994 11.9999 22.4301C11.9999 22.4301 3.99994 19.2608 5.99994 7.64017C5.99994 7.64017 9.99994 12.9223 15.9999 13.9787V11.8662C16.0001 10.6526 16.3957 9.47605 17.1203 8.53433C17.845 7.59261 18.8544 6.94317 19.979 6.6952C21.1036 6.44723 22.2747 6.61585 23.2954 7.17271C24.3161 7.72958 25.1242 8.64072 25.5839 9.75296L29.9999 9.75301L25.9999 13.9787C25.9999 21.3737 20.9999 28.7686 11.9999 28.7686C7.99994 28.7686 5.99994 26.6558 5.99994 26.6558Z" stroke="white" stroke-width="2" stroke-linecap="round" stroke-linejoin="round"/>
</svg>
