<svg width="32" height="35" viewBox="0 0 32 35" fill="none" xmlns="http://www.w3.org/2000/svg">
<path d="M26 5.5271H6C5.44772 5.5271 5 6.00008 5 6.58352V27.712C5 28.2954 5.44772 28.7684 6 28.7684H26C26.5523 28.7684 27 28.2954 27 27.712V6.58352C27 6.00008 26.5523 5.5271 26 5.5271Z" stroke="white" stroke-width="2" stroke-linecap="round" stroke-linejoin="round"/>
<path d="M15 15.0352V23.4865" stroke="white" stroke-width="2" stroke-linecap="round" stroke-linejoin="round"/>
<path d="M11 15.0352V23.4865" stroke="white" stroke-width="2" stroke-linecap="round" stroke-linejoin="round"/>
<path d="M15 18.7326C15 17.752 15.3687 16.8115 16.0251 16.1181C16.6815 15.4247 17.5717 15.0352 18.5 15.0352C19.4283 15.0352 20.3185 15.4247 20.9749 16.1181C21.6313 16.8115 22 17.752 22 18.7326V23.4865" stroke="white" stroke-width="2" stroke-linecap="round" stroke-linejoin="round"/>
<path d="M11 12.3939C11.8284 12.3939 12.5 11.6844 12.5 10.8092C12.5 9.93407 11.8284 9.22461 11 9.22461C10.1716 9.22461 9.5 9.93407 9.5 10.8092C9.5 11.6844 10.1716 12.3939 11 12.3939Z" fill="white"/>
</svg>
