<svg width="32" height="35" viewBox="0 0 32 35" fill="none" xmlns="http://www.w3.org/2000/svg">
<path d="M16 22.43C18.7614 22.43 21 20.0651 21 17.1478C21 14.2306 18.7614 11.8657 16 11.8657C13.2386 11.8657 11 14.2306 11 17.1478C11 20.0651 13.2386 22.43 16 22.43Z" stroke="white" stroke-width="2" stroke-miterlimit="10"/>
<path d="M21.5 4.99902H10.5C7.18629 4.99902 4.5 7.83688 4.5 11.3376V22.9582C4.5 26.4589 7.18629 29.2967 10.5 29.2967H21.5C24.8137 29.2967 27.5 26.4589 27.5 22.9582V11.3376C27.5 7.83688 24.8137 4.99902 21.5 4.99902Z" stroke="white" stroke-width="2" stroke-linecap="round" stroke-linejoin="round"/>
<path d="M22.5 11.8658C23.3284 11.8658 24 11.1563 24 10.2812C24 9.406 23.3284 8.69653 22.5 8.69653C21.6716 8.69653 21 9.406 21 10.2812C21 11.1563 21.6716 11.8658 22.5 11.8658Z" fill="white"/>
</svg>
