<svg width="83" height="85" viewBox="0 0 83 85" fill="none" xmlns="http://www.w3.org/2000/svg">
<circle cx="60.5" cy="22.5" r="22.5" fill="#FF5353"/>
<path d="M38 43.0589V12.2647" stroke="black" stroke-width="2" stroke-linecap="round" stroke-linejoin="round"/>
<path d="M62.6817 27.6618L13.3182 58.456" stroke="black" stroke-width="2" stroke-linecap="round" stroke-linejoin="round"/>
<path d="M9.97513 48.6885C8.74118 41.4731 9.9284 34.0187 13.3236 27.6641C16.7188 21.3094 22.0995 16.4707 28.4995 14.0171V37.1326L9.97513 48.6885Z" stroke="black" stroke-width="2" stroke-linecap="round" stroke-linejoin="round"/>
<path d="M38 12.2647C42.9933 12.2657 47.8986 13.6841 52.2249 16.378C56.5512 19.0718 60.1466 22.9465 62.6509 27.6141C65.1553 32.2816 66.4808 37.5781 66.4946 42.9733C66.5085 48.3685 65.2103 53.6729 62.73 58.3554C60.2496 63.0379 56.6743 66.9341 52.3619 69.6539C48.0495 72.3737 43.1515 73.8215 38.1584 73.8525C33.1652 73.8835 28.2521 72.4965 23.9111 69.8304C19.5702 67.1643 15.9536 63.3127 13.4237 58.6612" stroke="black" stroke-width="2" stroke-linecap="round" stroke-linejoin="round"/>
</svg>
