<svg width="67" height="80" viewBox="0 0 67 80" fill="none" xmlns="http://www.w3.org/2000/svg">
<circle cx="41.5" cy="22.5" r="22.5" fill="#FFBA53"/>
<path d="M42.3984 52.8114C47.3129 52.8114 51.2969 48.5067 51.2969 43.1966C51.2969 37.8866 47.3129 33.5819 42.3984 33.5819C37.484 33.5819 33.5 37.8866 33.5 43.1966C33.5 48.5067 37.484 52.8114 42.3984 52.8114Z" stroke="black" stroke-width="2" stroke-linecap="round" stroke-linejoin="round"/>
<path d="M33.5 33.5819V14.3527H24.6016C22.2416 14.3527 19.9782 15.3657 18.3094 17.1688C16.6406 18.9719 15.7031 21.4175 15.7031 23.9675C15.7031 26.5174 16.6406 28.963 18.3094 30.7661C19.9782 32.5692 22.2416 33.5822 24.6016 33.5822L33.5 33.5819Z" stroke="black" stroke-width="2" stroke-linecap="round" stroke-linejoin="round"/>
<path d="M33.5 52.8111V33.5819H24.6016C22.2416 33.5819 19.9782 34.5949 18.3094 36.398C16.6406 38.2011 15.7031 40.6467 15.7031 43.1966C15.7031 45.7466 16.6406 48.1922 18.3094 49.9953C19.9782 51.7984 22.2416 52.8114 24.6016 52.8114L33.5 52.8111Z" stroke="black" stroke-width="2" stroke-linecap="round" stroke-linejoin="round"/>
<path d="M33.5 33.5819V14.3527H42.3984C44.7584 14.3527 47.0218 15.3657 48.6906 17.1688C50.3594 18.9719 51.2969 21.4175 51.2969 23.9675C51.2969 26.5174 50.3594 28.963 48.6906 30.7661C47.0218 32.5692 44.7584 33.5822 42.3984 33.5822L33.5 33.5819Z" stroke="black" stroke-width="2" stroke-linecap="round" stroke-linejoin="round"/>
<path d="M33.5 52.8111V62.426C33.5 64.3276 32.9782 66.1865 32.0004 67.7676C31.0226 69.3488 29.6329 70.5812 28.0069 71.3089C26.381 72.0366 24.5918 72.2271 22.8656 71.8561C21.1395 71.4851 19.5539 70.5694 18.3095 69.2248C17.065 67.8801 16.2175 66.1669 15.8741 64.3019C15.5308 62.4368 15.707 60.5036 16.3805 58.7467C17.054 56.9898 18.1945 55.4882 19.6578 54.4317C21.1212 53.3752 22.8416 52.8113 24.6016 52.8113L33.5 52.8111Z" stroke="black" stroke-width="2" stroke-linecap="round" stroke-linejoin="round"/>
</svg>
